{"title":"Escape Plan 2013 DVDrip English Klam","uid":9514449,"size":1487616591,"categoryP":"video","categoryS":"movies","magnet":"?xt=urn:btih:d6535551738444aa23a132fb51c924fb7ac10adf&amp;dn=Escape+Plan+2013+DVDrip+English+Klam&amp;tr=udp%3A%2F%2Ftracker.openbittorrent.com%3A80&amp;tr=udp%3A%2F%2Fopen.demonii.com%3A1337&amp;tr=udp%3A%2F%2Ftracker.coppersurfer.tk%3A6969&amp;tr=udp%3A%2F%2Fexodus.desync.com%3A6969","seeders":4,"leechers":0,"uploader":"Klambake","files":-1,"time":1390490313,"description":"With: Arnold Schwarzenegger, Sylvester Stallone and Jim Caviezel\n\nRay Breslin is 's werelds meest vooraanstaande persoon als het gaat om veiligheid. Hij heeft elke gevangenis nauwkeurig geanalyseerd en is tevens getraind op een enorme hoeveelheid overlevingstechnieken, zodat hij kan werken aan de best beveiligde gevangenissen ooit, waaruit ontsnappen onmogelijk is. Maar dan belandt hij in de gevangenis die hij ooit zelf ontwierp. Ray doet er alles aan om te ontsnappen, en gaat op zoek naar de persoon die er voor zorgde dat hij zelf achter de tralies verdween.\n\nWhen a structural-security authority finds himself set up and incarcerated in the world's most secret and secure prison, he has to use his skills to escape with help from the inside. \n &lt;a href=&quot;\nhttp://www.imdb.com/title/tt1211956&quot; rel=&quot;nofollow&quot; target=&quot;_NEW&quot;&gt;\nhttp://www.imdb.com/title/tt1211956&lt;/a&gt;\t\n\n--------------------- Dutch Friends 4ever ---------------------\n---------------------------------------------------------------\n- Bezoek ook eens mijn vrienden op: &lt;a href=&quot; http://www.Film-Test.nl&quot; rel=&quot;nofollow&quot; target=&quot;_NEW&quot;&gt; http://www.Film-Test.nl&lt;/a&gt; --\n----- voor mijn Nederlandse Sync. ondertitels ---- en meer ----\n------- http://www.Film-Test.nl ---- Over Films en meer -------\n---------------------------------------------------------------\n\nGeneral:\n\nComplete name                    : Escape PlanEscape Plan.avi\nFormat                           : AVI\nFormat/Info                      : Audio Video Interleave\nFile size                        : 1.39 GiB\nDuration                         : 1h 55mn\nOverall bit rate                 : 1 716 Kbps\n\nVideo:\n\nFormat                           : MPEG-4 Visual\nFormat profile                   : Simple@L3\nFormat settings, BVOP            : No\nFormat settings, QPel            : No\nFormat settings, GMC             : No warppoints\nFormat settings, Matrix          : Default (H.263)\nCodec ID                         : XVID\nCodec ID/Hint                    : XviD\nDuration                         : 1h 55mn\nBit rate                         : 1 257 Kbps\nWidth                            : 720 pixels\nHeight                           : 304 pixels\nDisplay aspect ratio             : 2.35:1\nFrame rate                       : 23.976 fps\nColor space                      : YUV\nChroma subsampling               : 4:2:0\nBit depth                        : 8 bits\nScan type                        : Progressive\nCompression mode                 : Lossy\nBits/(Pixel*Frame)               : 0.240\nStream size                      : 1.02 GiB (73%)\nWriting library                  : XviD 1.1.2 (UTC 2006-11-01)\n\nAudio:\n\nFormat                           : AC-3\nFormat/Info                      : Audio Coding 3\nMode extension                   : CM (complete main)\nCodec ID                         : 2000\nDuration                         : 1h 55mn\nBit rate mode                    : Constant\nBit rate                         : 448 Kbps\nChannel(s)                       : 6 channels\nChannel positions                : Front: L C R, Side: L R, LFE\nSampling rate                    : 48.0 KHz\nBit depth                        : 16 bits\nCompression mode                 : Lossy\nStream size                      : 370 MiB (26%)\nAlignment                        : Aligned on interleaves\nInterleave, duration             : 32 ms (0.77 video frame)\nInterleave, preload duration     : 512 ms","torrent":{"xt":"urn:btih:d6535551738444aa23a132fb51c924fb7ac10adf","amp;dn":"Escape+Plan+2013+DVDrip+English+Klam","amp;tr":["udp%3A%2F%2Ftracker.openbittorrent.com%3A80","udp%3A%2F%2Fopen.demonii.com%3A1337","udp%3A%2F%2Ftracker.coppersurfer.tk%3A6969","udp%3A%2F%2Fexodus.desync.com%3A6969"],"infoHash":"d6535551738444aa23a132fb51c924fb7ac10adf","infoHashBuffer":{"type":"Buffer","data":[214,83,85,81,115,132,68,170,35,161,50,251,81,201,36,251,122,193,10,223]},"announce":[],"urlList":[]}}